<?xml version="1.0" encoding="UTF-8" standalone="no"?>
<svg xmlns="http://www.w3.org/2000/svg" xmlns:xlink="http://www.w3.org/1999/xlink"
   xmlns:svgjs="http://svgjs.dev/svgjs" version="1.1" width="2000" height="2250"
   viewBox="0 0 2000 2250">
   <g transform="matrix(1,0,0,1,0.0022017081398644223,0)">
      <svg xmlns="http://www.w3.org/2000/svg" xmlns:xlink="http://www.w3.org/1999/xlink"
         viewBox="0 0 320 360" data-background-color="#fefee2" preserveAspectRatio="xMidYMid meet"
         height="2250" width="2000">
         <g id="tight-bounds" transform="matrix(1,0,0,1,0.00010353528136874957,0)">
            <svg viewBox="0 0 320 360" height="360" width="320">
               <g>
                  <svg />
               </g>
               <g>
                  <svg viewBox="0 0 320 360" height="360" width="320">
                     <g>
                        <path xmlns="http://www.w3.org/2000/svg"
                           d="M307.925 179.999l6.575-11.387c11.322-19.607 4.604-44.679-15.003-56.001l-11.387-6.575v-13.151c0-22.639-18.354-40.994-40.994-40.994h-13.151l-6.575-11.387c-11.322-19.607-36.393-26.325-56.001-15.003l-11.39 6.572-11.387-6.576c-19.607-11.318-44.679-4.6-56.001 15.007l-6.575 11.387h-13.151c-22.639 0-40.994 18.354-40.994 40.994v13.151l-11.387 6.575c-19.607 11.322-26.325 36.393-15.003 56.001l6.572 11.387-6.576 11.387c-11.318 19.607-4.6 44.679 15.007 56l11.387 6.576v13.15c0 22.639 18.354 40.994 40.994 40.994h13.151l6.575 11.387c11.322 19.607 36.393 26.325 56.001 15.003l11.387-6.571 11.387 6.575c19.607 11.322 44.679 4.604 56-15.003l6.576-11.387h13.15c22.639 0 40.994-18.354 40.994-40.994v-13.151l11.387-6.575c19.607-11.322 26.325-36.393 15.003-56.001zM297.702 115.716c8.655 4.996 14.842 13.062 17.428 22.713 2.586 9.65 1.261 19.734-3.735 28.384l-5.538 9.596-17.747-30.74v-35.494zM251.155 271.155l-57.791 33.365h-66.731l-57.791-33.365-33.365-57.791v-66.731l33.365-57.791 57.791-33.365h66.731l57.791 33.365 33.365 57.791v66.731zM284.517 220.539v31.351l-27.151 15.676zM247.566 277.366l-15.676 27.151h-31.351zM187.15 308.106l-27.151 15.676-27.151-15.676zM119.459 304.517h-31.352l-15.676-27.151zM62.632 267.566l-27.151-15.676v-31.351zM31.891 207.15l-15.675-27.151 15.675-27.151zM35.481 139.459v-31.352l27.151-15.676zM72.431 82.632l15.676-27.151h31.352zM132.848 51.891l27.151-15.675 27.151 15.675zM200.539 55.481h31.351l15.676 27.151zM257.366 92.431l27.151 15.676v31.352zM288.106 152.848l15.676 27.151-15.676 27.151zM247.112 55.481c9.992 0 19.384 3.889 26.452 10.956 7.063 7.063 10.956 16.46 10.957 26.452v11.079l-30.741-17.747-17.747-30.74zM173.18 28.606c8.655-4.996 18.735-6.322 28.385-3.735 9.65 2.586 17.716 8.777 22.712 17.428l5.538 9.596h-35.494l-30.741-17.747zM95.716 42.295c4.996-8.655 13.062-14.842 22.713-17.428 9.65-2.586 19.734-1.261 28.384 3.736l9.596 5.537-30.74 17.747h-35.494zM35.481 92.885c0-9.992 3.889-19.384 10.956-26.452 7.063-7.063 16.46-10.956 26.452-10.956h11.079l-17.747 30.74-30.74 17.747zM8.606 166.817c-4.996-8.655-6.322-18.735-3.735-28.385 2.586-9.65 8.777-17.716 17.428-22.712l9.596-5.538v35.495l-17.747 30.74zM22.295 244.281c-8.655-4.996-14.842-13.062-17.428-22.712-2.586-9.65-1.261-19.734 3.736-28.385l5.537-9.596 17.747 30.74v35.495zM72.885 304.517c-9.992 0-19.384-3.889-26.452-10.957-7.063-7.063-10.956-16.46-10.956-26.451v-11.08l30.74 17.747 17.747 30.741zM146.817 331.391c-8.655 4.996-18.735 6.322-28.385 3.735-9.65-2.586-17.716-8.777-22.712-17.428l-5.538-9.596h35.495l30.74 17.747zM224.281 317.702c-4.996 8.655-13.062 14.842-22.712 17.428-9.65 2.586-19.734 1.261-28.385-3.735l-9.596-5.538 30.74-17.747h35.495zM284.517 267.112c0 9.992-3.889 19.384-10.957 26.452-7.063 7.063-16.46 10.956-26.451 10.957h-11.08l17.747-30.741 30.741-17.747zM315.13 221.565c-2.586 9.65-8.777 17.716-17.428 22.712l-9.596 5.538v-35.494l17.747-30.741 5.538 9.596c4.996 8.658 6.326 18.739 3.739 28.389z"
                           fill="#7fc37e" fill-rule="nonzero" stroke="none" stroke-width="1"
                           stroke-linecap="butt" stroke-linejoin="miter" stroke-miterlimit="10"
                           stroke-dasharray="" stroke-dashoffset="0" font-family="none"
                           font-weight="none" font-size="none" text-anchor="none"
                           style="mix-blend-mode: normal" data-fill-palette-color="tertiary" />
                     </g>
                     <g transform="matrix(1,0,0,1,64,145.4853620955316)">
                        <svg viewBox="0 0 192 69.02927580893682" height="69.02927580893682"
                           width="192">
                           <g>
                              <svg viewBox="0 0 192 69.02927580893682" height="69.02927580893682"
                                 width="192">
                                 <g>
                                    <svg viewBox="0 0 192 69.02927580893682"
                                       height="69.02927580893682" width="192">
                                       <g>
                                          <svg viewBox="0 0 192 69.02927580893682"
                                             height="69.02927580893682" width="192">
                                             <g id="textblocktransform">
                                                <svg viewBox="0 0 192 69.02927580893682"
                                                   height="69.02927580893682" width="192"
                                                   id="textblock">
                                                   <g>
                                                      <svg viewBox="0 0 192 69.02927580893682"
                                                         height="69.02927580893682" width="192">
                                                         <g transform="matrix(1,0,0,1,0,0)">
                                                            <svg width="192"
                                                               viewBox="3.0999999046325684 -35 97.34000396728516 35"
                                                               height="69.02927580893682"
                                                               data-palette-color="#7fc37e">
                                                               <path
                                                                  d="M29.3 0L4.4 0Q3.9 0 3.5-0.38 3.1-0.75 3.1-1.3L3.1-1.3 3.1-33.7Q3.1-34.25 3.5-34.63 3.9-35 4.4-35L4.4-35 28.9-35Q29.45-35 29.85-34.63 30.25-34.25 30.25-33.7L30.25-33.7 30.25-27.8Q30.25-27.3 29.85-26.9 29.45-26.5 28.9-26.5L28.9-26.5 13.45-26.5 13.45-21.55 27.8-21.55Q28.35-21.55 28.75-21.18 29.15-20.8 29.15-20.25L29.15-20.25 29.15-14.85Q29.15-14.3 28.75-13.93 28.35-13.55 27.8-13.55L27.8-13.55 13.45-13.55 13.45-8.5 29.3-8.5Q29.85-8.5 30.25-8.1 30.65-7.7 30.65-7.15L30.65-7.15 30.65-1.3Q30.65-0.75 30.25-0.38 29.85 0 29.3 0L29.3 0ZM45.2 0L37.05 0Q36.55 0 36.15-0.35 35.75-0.7 35.75-1.3L35.75-1.3 35.75-33.7Q35.75-34.25 36.15-34.63 36.55-35 37.05-35L37.05-35 45.2-35Q45.75-35 46.12-34.63 46.5-34.25 46.5-33.7L46.5-33.7 46.5-22.4 56.7-22.4 56.7-33.7Q56.7-34.25 57.1-34.63 57.5-35 58-35L58-35 66.15-35Q66.7-35 67.07-34.63 67.45-34.25 67.45-33.7L67.45-33.7 67.45-1.3Q67.45-0.75 67.07-0.38 66.7 0 66.15 0L66.15 0 58 0Q57.5 0 57.1-0.38 56.7-0.75 56.7-1.3L56.7-1.3 56.7-12.9 46.5-12.9 46.5-1.3Q46.5-0.75 46.12-0.38 45.75 0 45.2 0L45.2 0ZM99.09 0L75 0Q74.5 0 74.09-0.38 73.69-0.75 73.69-1.3L73.69-1.3 73.69-33.7Q73.69-34.25 74.09-34.63 74.5-35 75-35L75-35 83.3-35Q83.84-35 84.25-34.63 84.64-34.25 84.64-33.7L84.64-33.7 84.64-8.9 99.09-8.9Q99.64-8.9 100.05-8.53 100.44-8.15 100.44-7.6L100.44-7.6 100.44-1.3Q100.44-0.75 100.05-0.38 99.64 0 99.09 0L99.09 0Z"
                                                                  opacity="1"
                                                                  transform="matrix(1,0,0,1,0,0)"
                                                                  fill="#7fc37e"
                                                                  class="undefined-text-0"
                                                                  data-fill-palette-color="primary"
                                                                  id="text-0" />
                                                            </svg>
                                                         </g>
                                                      </svg>
                                                   </g>
                                                </svg>
                                             </g>
                                          </svg>
                                       </g>
                                       <g />
                                    </svg>
                                 </g>
                              </svg>
                           </g>
                        </svg>
                     </g>
                  </svg>
               </g>
               <defs />
            </svg>
            <rect width="320" height="360" fill="none" stroke="none" visibility="hidden" />
         </g>
      </svg>
   </g>
</svg>